<svg version="1.1" id="welcome-text" xmlns="http://www.w3.org/2000/svg" x="0px" y="0px"
						viewBox="0 0 419.74 82.72" >

						<path className="st0" d="M104.27,15.15c-1.43,4.76-3.01,9.27-4.73,13.53c-1.72,4.27-3.35,8.05-4.9,11.34
		c-1.78,3.84-3.57,7.39-5.37,10.66c-1.46,2.58-2.69,4.83-3.67,6.75c-0.99,1.92-1.78,3.56-2.38,4.92s-1.03,2.49-1.29,3.39
		s-0.39,1.64-0.39,2.21c0,0.6,0.13,1.07,0.39,1.4s0.57,0.58,0.92,0.75c0.36,0.17,0.72,0.28,1.07,0.32c0.36,0.04,0.65,0.06,0.88,0.06
		c1,0,2.2-0.28,3.59-0.84c1.39-0.56,2.89-1.35,4.51-2.36c1.62-1.02,3.31-2.25,5.09-3.7c1.78-1.45,3.54-3.07,5.29-4.88
		c1.75-1.8,3.44-3.76,5.09-5.86c1.65-2.11,3.16-4.33,4.53-6.68c2.21-3.84,3.97-7.39,5.29-10.66c-0.83-1.63-1.45-3.31-1.85-5.05
		c-0.4-1.73-0.6-3.37-0.6-4.92c0-2.23,0.35-4.02,1.05-5.37c0.7-1.35,1.68-2.02,2.94-2.02c0.69,0,1.27,0.17,1.74,0.52
		s0.85,0.79,1.14,1.33c0.29,0.54,0.49,1.14,0.62,1.78s0.19,1.28,0.19,1.91c0,1.35-0.19,2.89-0.58,4.64
		c-0.39,1.75-0.95,3.63-1.68,5.65c-0.73,2.02-1.63,4.15-2.69,6.4c-1.06,2.25-2.28,4.55-3.65,6.9c-1.38,2.35-2.9,4.6-4.58,6.77
		c-1.68,2.16-3.42,4.19-5.24,6.08c-1.82,1.89-3.67,3.62-5.54,5.18c-1.88,1.56-3.69,2.89-5.46,4s-3.44,1.96-5.03,2.58
		c-1.59,0.62-2.99,0.92-4.19,0.92c-2.26,0-4.04-0.52-5.33-1.55c-1.29-1.03-1.93-2.68-1.93-4.94c0-1.23,0.16-2.46,0.49-3.69
		c0.33-1.23,0.82-2.56,1.46-4c0.64-1.43,1.44-3,2.38-4.7c0.95-1.7,2.03-3.63,3.27-5.78c-2.86,3.81-5.95,7.5-9.26,11.06
		c-3.31,3.57-6.84,6.75-10.59,9.56c-1.69,1.26-3.24,2.31-4.64,3.16c-1.4,0.84-2.69,1.53-3.85,2.04c-1.16,0.52-2.21,0.88-3.16,1.1
		s-1.8,0.32-2.58,0.32c-1.12,0-2.08-0.16-2.9-0.47c-0.82-0.32-1.49-0.74-2.02-1.27c-0.53-0.53-0.92-1.16-1.16-1.89
		c-0.24-0.73-0.37-1.53-0.37-2.38c0-1.43,0.21-2.79,0.64-4.08s1.06-2.61,1.89-3.95c0.95-1.49,2.07-3.14,3.37-4.94
		c1.3-1.8,2.66-3.69,4.08-5.67s2.82-4,4.21-6.06c1.39-2.06,2.64-4.11,3.74-6.14c1.1-2.03,1.99-4.01,2.66-5.93
		c0.67-1.92,1.01-3.72,1.01-5.41c0-2.66-0.52-5.1-1.57-7.3c-1.05-2.21-2.54-4.1-4.49-5.67c-1.95-1.58-4.3-2.79-7.07-3.65
		c-2.76-0.86-5.86-1.29-9.3-1.29c-4.73,0-9.07,0.69-13.02,2.06c-3.95,1.38-7.35,3.27-10.2,5.69c-2.85,2.42-5.07,5.27-6.66,8.55
		c-1.59,3.28-2.38,6.81-2.38,10.59c0,2.32,0.37,4.43,1.1,6.34c0.73,1.91,1.76,3.54,3.09,4.92c1.33,1.38,2.95,2.44,4.85,3.2
		c1.9,0.76,4.03,1.14,6.38,1.14c2.72,0,5.24-0.48,7.56-1.44c2.32-0.96,4.43-2.27,6.34-3.93c1.9-1.66,3.6-3.62,5.09-5.87
		c1.49-2.25,2.75-4.66,3.78-7.24l1.93,0.69c-2.78,6.9-6.46,12.12-11.04,15.66c-4.58,3.54-10.03,5.31-16.33,5.31
		c-2.66,0-5.08-0.45-7.26-1.35s-4.04-2.16-5.59-3.78c-1.55-1.62-2.74-3.55-3.59-5.8c-0.85-2.25-1.27-4.72-1.27-7.41
		c0-3.64,0.6-6.9,1.8-9.8c1.2-2.89,2.8-5.44,4.79-7.63c1.99-2.19,4.25-4.06,6.79-5.61c2.54-1.55,5.13-2.81,7.8-3.78
		c2.66-0.97,5.27-1.68,7.82-2.13c2.55-0.44,4.84-0.67,6.87-0.67c3.84,0,7.39,0.47,10.66,1.4c3.27,0.93,6.09,2.32,8.49,4.17
		c2.39,1.85,4.26,4.13,5.61,6.85c1.35,2.72,2.02,5.87,2.02,9.45c0,2.61-0.49,5.49-1.48,8.66s-2.7,6.57-5.13,10.2
		c-2.23,3.35-4.27,6.26-6.1,8.72c-1.83,2.46-3.4,4.59-4.7,6.38c-1.3,1.79-2.31,3.29-3.03,4.49c-0.72,1.2-1.07,2.21-1.07,3.01
		c0,0.83,0.3,1.5,0.9,2.02c0.6,0.52,1.43,0.77,2.49,0.77c1.52,0,3.36-0.52,5.52-1.55c2.16-1.03,4.59-2.55,7.28-4.55
		c2.66-1.98,5.21-4.15,7.63-6.53c2.42-2.38,4.71-4.85,6.87-7.41c2.16-2.56,4.2-5.18,6.12-7.84c1.92-2.66,3.7-5.28,5.33-7.84
		c1.63-2.56,3.12-5.04,4.47-7.43c1.35-2.39,2.53-4.6,3.57-6.62c1.03-2.02,1.9-3.81,2.62-5.37c0.72-1.56,1.26-2.79,1.63-3.67
		L104.27,15.15z M119.36,32.55c0.66-1.83,1.13-3.49,1.42-4.98c0.29-1.49,0.43-2.76,0.43-3.82c0-0.2-0.01-0.49-0.02-0.88
		c-0.01-0.39-0.07-0.76-0.17-1.12c-0.1-0.36-0.25-0.67-0.45-0.95c-0.2-0.27-0.47-0.41-0.82-0.41c-0.49,0-0.9,0.49-1.22,1.46
		c-0.33,0.97-0.49,2.16-0.49,3.57c0,1.06,0.1,2.2,0.3,3.42C118.52,30.05,118.87,31.29,119.36,32.55z"/>
						<path className="st0" d="M125.41,57.52c-0.06,0.34-0.1,0.69-0.13,1.03c-0.03,0.34-0.04,0.69-0.04,1.03c0,1.03,0.15,2.01,0.45,2.94
		s0.74,1.75,1.33,2.45c0.59,0.7,1.32,1.25,2.19,1.65c0.87,0.4,1.87,0.6,2.99,0.6c3.75,0,7.38-1.27,10.87-3.82
		c3.49-2.55,6.97-6.59,10.44-12.12l1.46,1.29c-1.89,3.15-3.81,5.81-5.76,7.97c-1.95,2.16-3.89,3.92-5.82,5.26
		c-1.93,1.35-3.83,2.32-5.69,2.92c-1.86,0.6-3.64,0.9-5.33,0.9c-1.23,0-2.54-0.17-3.91-0.52c-1.37-0.34-2.64-0.92-3.8-1.72
		s-2.12-1.88-2.88-3.22c-0.76-1.35-1.14-3.02-1.14-5.03c0-2.15,0.37-4.22,1.1-6.21c0.73-1.99,1.68-3.85,2.86-5.56
		c1.17-1.72,2.52-3.29,4.04-4.7c1.52-1.42,3.06-2.63,4.62-3.63c1.56-1,3.09-1.78,4.58-2.34c1.49-0.56,2.81-0.84,3.95-0.84
		c0.74,0,1.5,0.11,2.28,0.34c0.77,0.23,1.47,0.59,2.08,1.07c0.62,0.49,1.12,1.13,1.5,1.93c0.39,0.8,0.58,1.76,0.58,2.88
		c0,1.52-0.35,2.94-1.05,4.28c-0.7,1.33-1.64,2.56-2.81,3.69c-1.17,1.13-2.53,2.15-4.08,3.05s-3.17,1.67-4.86,2.3
		c-1.69,0.63-3.39,1.13-5.11,1.5C128.59,57.29,126.96,57.49,125.41,57.52z M125.76,55.67c1.92-0.2,3.72-0.6,5.41-1.2
		c1.69-0.6,3.24-1.34,4.64-2.21c1.4-0.87,2.66-1.83,3.76-2.86c1.1-1.03,2.03-2.08,2.77-3.14c0.74-1.06,1.32-2.08,1.72-3.05
		c0.4-0.97,0.6-1.85,0.6-2.62s-0.21-1.39-0.62-1.85c-0.42-0.46-0.91-0.69-1.48-0.69c-1.26,0-2.68,0.45-4.25,1.35
		c-1.58,0.9-3.15,2.15-4.73,3.74c-1.58,1.59-3.06,3.46-4.45,5.61C127.74,50.9,126.62,53.2,125.76,55.67z"/>
						<path className="st0" d="M184.62,4.8c1,0,1.84,0.24,2.51,0.73c0.67,0.49,1.01,1.38,1.01,2.66c0,0.89-0.18,1.95-0.54,3.18
		c-0.36,1.23-0.85,2.57-1.46,4.02c-0.62,1.45-1.34,2.96-2.17,4.55c-0.83,1.59-1.73,3.17-2.69,4.75c-0.96,1.58-1.96,3.11-3.01,4.6
		c-1.05,1.49-2.08,2.86-3.12,4.12c-2.06,2.55-3.85,4.7-5.35,6.44c-1.5,1.75-2.8,3.23-3.89,4.45c-1.09,1.22-2,2.21-2.75,2.96
		c-0.75,0.76-1.4,1.41-1.98,1.96c-0.57,0.54-1.1,1.04-1.59,1.48c-0.49,0.44-0.99,0.94-1.5,1.48c-0.23,1.09-0.34,2.13-0.32,3.11
		c0.01,0.99,0.02,1.9,0.02,2.73c0,2.49,0.4,4.34,1.2,5.54c0.8,1.2,1.93,1.8,3.39,1.8c0.97,0,1.96-0.25,2.94-0.75
		c0.99-0.5,1.97-1.15,2.94-1.95c0.97-0.8,1.92-1.71,2.84-2.73c0.92-1.02,1.78-2.05,2.6-3.09c0.82-1.04,1.55-2.05,2.21-3.03
		c0.66-0.97,1.23-1.82,1.72-2.54l1.59,1.2c-0.09,0.11-0.37,0.57-0.84,1.35c-0.47,0.79-1.1,1.74-1.87,2.86s-1.69,2.31-2.75,3.59
		c-1.06,1.27-2.21,2.46-3.44,3.54c-1.23,1.09-2.53,1.99-3.89,2.71c-1.36,0.72-2.74,1.07-4.15,1.07c-1.17,0-2.3-0.22-3.37-0.67
		c-1.07-0.44-2.02-1.15-2.84-2.11c-0.82-0.96-1.48-2.18-1.98-3.67c-0.5-1.49-0.75-3.28-0.75-5.37c0-2.61,0.31-5.33,0.92-8.19
		c0.62-2.85,1.45-5.71,2.51-8.59c1.06-2.88,2.31-5.72,3.74-8.53c1.43-2.81,2.96-5.48,4.58-8.01c1.62-2.54,3.31-4.88,5.07-7.05
		c1.76-2.16,3.49-4.03,5.2-5.61c1.7-1.57,3.34-2.81,4.92-3.69C181.9,5.24,183.33,4.8,184.62,4.8z M158.88,48.36
		c2.43-2.52,4.79-5.08,7.07-7.67c2.28-2.59,4.41-5.16,6.4-7.69c1.99-2.53,3.82-5,5.48-7.39c1.66-2.39,3.08-4.65,4.25-6.77
		c1.17-2.12,2.09-4.05,2.75-5.8c0.66-1.75,0.99-3.25,0.99-4.51c0-0.23-0.11-0.54-0.34-0.92c-0.23-0.39-0.5-0.58-0.82-0.58
		c-0.89,0-2.06,0.59-3.52,1.76c-1.46,1.17-3.04,2.77-4.75,4.79c-1.7,2.02-3.47,4.38-5.28,7.07c-1.82,2.69-3.53,5.57-5.13,8.64
		c-1.6,3.07-3.04,6.23-4.3,9.5C160.42,42.05,159.49,45.24,158.88,48.36z"/>
						<path className="st0" d="M202.15,39.77c0-0.92-0.37-1.64-1.1-2.17c-0.73-0.53-1.88-0.79-3.46-0.79c-1.29,0-2.59,0.28-3.89,0.84
		c-1.3,0.56-2.56,1.33-3.76,2.3c-1.2,0.97-2.33,2.13-3.37,3.48c-1.05,1.35-1.95,2.81-2.71,4.38c-0.76,1.58-1.36,3.24-1.8,5.01
		c-0.44,1.76-0.67,3.53-0.67,5.31c0,1.43,0.16,2.65,0.47,3.65c0.31,1,0.76,1.82,1.33,2.45c0.57,0.63,1.26,1.08,2.06,1.35
		c0.8,0.27,1.7,0.41,2.71,0.41c1.98,0,3.9-0.44,5.76-1.33c1.86-0.89,3.63-2.04,5.31-3.46c1.68-1.42,3.22-3,4.64-4.75
		c1.42-1.75,2.67-3.47,3.76-5.16l1.59,1.2c-1.55,2.61-3.19,4.89-4.94,6.85c-1.75,1.96-3.54,3.6-5.37,4.92
		c-1.83,1.32-3.69,2.31-5.59,2.96c-1.89,0.66-3.74,0.99-5.54,0.99c-1.43,0-2.8-0.21-4.1-0.64c-1.3-0.43-2.45-1.08-3.44-1.96
		c-0.99-0.87-1.78-2-2.36-3.37c-0.59-1.38-0.88-3.01-0.88-4.9c0-2.23,0.32-4.35,0.97-6.34c0.64-1.99,1.5-3.83,2.58-5.52
		c1.07-1.69,2.31-3.22,3.72-4.58c1.4-1.36,2.87-2.51,4.4-3.46c1.53-0.95,3.08-1.67,4.64-2.17c1.56-0.5,3.03-0.75,4.4-0.75
		c1.4,0,2.55,0.19,3.44,0.58c0.89,0.39,1.59,0.85,2.11,1.4c0.52,0.54,0.87,1.12,1.05,1.72c0.19,0.6,0.28,1.12,0.28,1.55
		c0,0.69-0.1,1.42-0.3,2.19c-0.2,0.77-0.48,1.48-0.84,2.13c-0.36,0.64-0.8,1.18-1.33,1.61c-0.53,0.43-1.11,0.64-1.74,0.64
		c-0.63,0-1.17-0.21-1.63-0.62c-0.46-0.42-0.69-0.94-0.69-1.57c0-0.03,0.02-0.2,0.06-0.52c0.04-0.31,0.18-0.65,0.41-1.01
		c0.23-0.36,0.58-0.68,1.05-0.97c0.47-0.29,1.14-0.43,2-0.43h0.52C202.06,40.77,202.15,40.29,202.15,39.77z"/>
						<path className="st0" d="M231.67,55.62c0.11,0.03,0.23,0.04,0.34,0.04s0.24,0,0.39,0c0.8,0,1.53-0.08,2.19-0.24
		c0.66-0.16,1.27-0.41,1.83-0.75s1.1-0.79,1.61-1.35s1.02-1.24,1.5-2.04l1.55,1.2c-1.38,1.95-2.79,3.31-4.25,4.08
		s-3.01,1.16-4.64,1.16c-0.6,0-1.13-0.06-1.59-0.17c-1.23,2.06-2.55,3.82-3.95,5.26c-1.4,1.45-2.84,2.63-4.3,3.54
		c-1.46,0.92-2.91,1.58-4.34,2c-1.43,0.42-2.76,0.62-4,0.62c-1.26,0-2.43-0.22-3.5-0.67c-1.07-0.44-2-1.08-2.77-1.91
		c-0.77-0.83-1.38-1.82-1.8-2.96c-0.43-1.14-0.64-2.43-0.64-3.87c0-1.43,0.23-2.89,0.69-4.38c0.46-1.49,1.08-2.96,1.87-4.43
		s1.71-2.87,2.77-4.23c1.06-1.36,2.21-2.63,3.44-3.8c1.23-1.17,2.51-2.23,3.82-3.18c1.32-0.94,2.63-1.72,3.95-2.32l1.38,1.8
		c-1.52,1.09-3.06,2.46-4.62,4.12c-1.56,1.66-2.98,3.48-4.25,5.46c-1.27,1.98-2.32,4.03-3.14,6.17c-0.82,2.13-1.22,4.2-1.22,6.21
		c0,1.8,0.4,3.2,1.2,4.19c0.8,0.99,2.02,1.48,3.65,1.48c1.26,0,2.51-0.26,3.74-0.77c1.23-0.52,2.43-1.22,3.61-2.11
		c1.17-0.89,2.31-1.94,3.4-3.16c1.09-1.22,2.12-2.51,3.09-3.89c-0.83-0.49-1.56-1.14-2.19-1.95c-0.63-0.82-1.16-1.75-1.59-2.79
		c-0.43-1.05-0.75-2.17-0.97-3.37s-0.32-2.43-0.32-3.69c0-1.26,0.16-2.45,0.47-3.57c0.31-1.12,0.75-2.1,1.31-2.94
		c0.56-0.84,1.21-1.51,1.96-2c0.74-0.49,1.56-0.73,2.45-0.73c0.8,0,1.52,0.21,2.15,0.62c0.63,0.42,1.16,0.99,1.59,1.72
		s0.76,1.6,0.99,2.6c0.23,1,0.34,2.08,0.34,3.22c0,0.86-0.07,1.8-0.21,2.84c-0.14,1.03-0.35,2.07-0.62,3.11
		c-0.27,1.05-0.6,2.08-0.99,3.09C232.64,53.91,232.18,54.82,231.67,55.62z M225.83,44.93c0,0.83,0.07,1.73,0.21,2.71
		c0.14,0.97,0.37,1.92,0.69,2.84c0.31,0.92,0.71,1.77,1.2,2.56c0.49,0.79,1.09,1.41,1.8,1.87c0.52-1,0.95-2.03,1.31-3.07
		c0.36-1.05,0.66-2.06,0.9-3.03c0.24-0.97,0.42-1.88,0.52-2.73c0.1-0.84,0.15-1.58,0.15-2.21c0-0.86-0.07-1.65-0.21-2.36
		c-0.14-0.72-0.34-1.34-0.58-1.87c-0.24-0.53-0.54-0.94-0.9-1.25s-0.75-0.45-1.18-0.45c-0.57,0-1.1,0.19-1.59,0.58
		s-0.9,0.9-1.25,1.55s-0.61,1.39-0.79,2.23C225.92,43.13,225.83,44.01,225.83,44.93z"/>
						<path className="st0" d="M275.28,43.94c0.83-0.97,1.69-1.88,2.58-2.71c0.89-0.83,1.78-1.55,2.66-2.15c0.89-0.6,1.77-1.07,2.64-1.4
		c0.87-0.33,1.71-0.49,2.51-0.49c0.63,0,1.25,0.11,1.87,0.32c0.62,0.21,1.17,0.54,1.65,0.99c0.49,0.44,0.87,1.01,1.16,1.7
		c0.29,0.69,0.43,1.5,0.43,2.45c0,1.38-0.19,2.73-0.56,4.06c-0.37,1.33-0.85,2.63-1.42,3.89c-0.57,1.26-1.18,2.48-1.83,3.65
		c-0.64,1.17-1.25,2.3-1.83,3.37c-0.57,1.07-1.05,2.09-1.42,3.05c-0.37,0.96-0.56,1.84-0.56,2.64c0,0.63,0.16,1.08,0.49,1.35
		c0.33,0.27,0.68,0.41,1.05,0.41c0.74,0,1.62-0.43,2.64-1.29c1.02-0.86,2.08-1.96,3.2-3.31c1.12-1.35,2.24-2.83,3.37-4.45
		c1.13-1.62,2.21-3.2,3.24-4.75l1.55,1.2c-0.37,0.6-0.85,1.4-1.44,2.38c-0.59,0.99-1.27,2.05-2.04,3.18
		c-0.77,1.13-1.62,2.28-2.54,3.44c-0.92,1.16-1.88,2.21-2.9,3.14c-1.02,0.93-2.07,1.69-3.16,2.28c-1.09,0.59-2.18,0.88-3.27,0.88
		c-0.6,0-1.18-0.09-1.74-0.26s-1.05-0.45-1.48-0.84s-0.77-0.89-1.03-1.53c-0.26-0.63-0.39-1.4-0.39-2.32c0-1.26,0.21-2.49,0.64-3.7
		s0.97-2.39,1.63-3.57c0.66-1.17,1.37-2.34,2.13-3.5s1.47-2.31,2.13-3.46c0.66-1.15,1.2-2.3,1.63-3.46s0.64-2.34,0.64-3.54
		c0-0.6-0.12-1.08-0.34-1.44c-0.23-0.36-0.66-0.54-1.29-0.54c-1,0-2.06,0.41-3.18,1.22s-2.28,1.91-3.48,3.29s-2.43,2.97-3.69,4.79
		c-1.26,1.82-2.51,3.74-3.76,5.76c-1.25,2.02-2.48,4.07-3.7,6.14c-1.22,2.08-2.38,4.08-3.5,5.99l-3.61-1.89
		c1.52-3.12,2.94-5.91,4.28-8.38c1.33-2.46,2.5-4.69,3.5-6.68c1-1.99,1.79-3.81,2.36-5.46c0.57-1.65,0.86-3.2,0.86-4.66
		c0-0.29-0.03-0.58-0.09-0.88c-0.06-0.3-0.17-0.57-0.34-0.79c-0.17-0.23-0.39-0.42-0.67-0.58c-0.27-0.16-0.62-0.24-1.05-0.24
		c-0.97,0-1.96,0.45-2.96,1.35c-1,0.9-2.06,2.13-3.18,3.69c-1.12,1.56-2.31,3.38-3.59,5.46c-1.27,2.08-2.65,4.28-4.12,6.6
		c-1.48,2.32-3.07,4.7-4.79,7.15c-1.72,2.45-3.59,4.82-5.63,7.11l-2.96-1.98c0.92-1.38,1.88-2.83,2.9-4.36s2.02-3.09,3.01-4.66
		c0.99-1.57,1.93-3.14,2.84-4.7c0.9-1.56,1.7-3.04,2.38-4.45c0.69-1.4,1.23-2.69,1.63-3.87c0.4-1.17,0.6-2.18,0.6-3.01
		c0-0.97-0.24-1.68-0.73-2.11c-0.49-0.43-1.12-0.64-1.89-0.64c-0.92,0-1.81,0.33-2.69,0.99c-0.87,0.66-1.79,1.59-2.75,2.79
		s-1.99,2.64-3.09,4.32c-1.1,1.68-2.36,3.52-3.76,5.52l-1.55-1.2c1.52-2.41,2.88-4.53,4.1-6.36c1.22-1.83,2.37-3.37,3.46-4.6
		c1.09-1.23,2.17-2.16,3.24-2.79c1.07-0.63,2.24-0.95,3.5-0.95c0.37,0,0.85,0.07,1.44,0.21c0.59,0.14,1.17,0.4,1.74,0.77
		c0.57,0.37,1.08,0.89,1.53,1.55c0.44,0.66,0.71,1.5,0.79,2.53c1.6-2.06,3.28-3.71,5.03-4.94c1.75-1.23,3.39-1.85,4.94-1.85
		c1.12,0,2.06,0.22,2.84,0.67c0.77,0.44,1.4,1.02,1.87,1.74c0.47,0.72,0.82,1.53,1.03,2.43c0.21,0.9,0.32,1.81,0.32,2.73
		c0,0.23-0.01,0.47-0.02,0.73C275.33,43.42,275.31,43.68,275.28,43.94z"/>
						<path className="st0" d="M300.46,57.52c-0.06,0.34-0.1,0.69-0.13,1.03c-0.03,0.34-0.04,0.69-0.04,1.03c0,1.03,0.15,2.01,0.45,2.94
		s0.74,1.75,1.33,2.45c0.59,0.7,1.32,1.25,2.19,1.65c0.87,0.4,1.87,0.6,2.99,0.6c3.75,0,7.38-1.27,10.87-3.82
		c3.49-2.55,6.97-6.59,10.44-12.12l1.46,1.29c-1.89,3.15-3.81,5.81-5.76,7.97c-1.95,2.16-3.89,3.92-5.82,5.26
		c-1.93,1.35-3.83,2.32-5.69,2.92s-3.64,0.9-5.33,0.9c-1.23,0-2.54-0.17-3.91-0.52s-2.64-0.92-3.8-1.72s-2.12-1.88-2.88-3.22
		c-0.76-1.35-1.14-3.02-1.14-5.03c0-2.15,0.37-4.22,1.1-6.21c0.73-1.99,1.68-3.85,2.86-5.56c1.17-1.72,2.52-3.29,4.04-4.7
		c1.52-1.42,3.06-2.63,4.62-3.63c1.56-1,3.09-1.78,4.58-2.34s2.81-0.84,3.95-0.84c0.74,0,1.5,0.11,2.28,0.34
		c0.77,0.23,1.47,0.59,2.08,1.07c0.62,0.49,1.12,1.13,1.5,1.93c0.39,0.8,0.58,1.76,0.58,2.88c0,1.52-0.35,2.94-1.05,4.28
		c-0.7,1.33-1.64,2.56-2.81,3.69c-1.17,1.13-2.54,2.15-4.08,3.05s-3.17,1.67-4.86,2.3c-1.69,0.63-3.39,1.13-5.11,1.5
		C303.64,57.29,302,57.49,300.46,57.52z M300.8,55.67c1.92-0.2,3.72-0.6,5.41-1.2c1.69-0.6,3.24-1.34,4.64-2.21
		c1.4-0.87,2.66-1.83,3.76-2.86s2.03-2.08,2.77-3.14c0.74-1.06,1.32-2.08,1.72-3.05c0.4-0.97,0.6-1.85,0.6-2.62
		s-0.21-1.39-0.62-1.85c-0.42-0.46-0.91-0.69-1.48-0.69c-1.26,0-2.68,0.45-4.25,1.35c-1.58,0.9-3.15,2.15-4.73,3.74
		c-1.58,1.59-3.06,3.46-4.45,5.61C302.78,50.9,301.66,53.2,300.8,55.67z"/>
						<path className="st0" d="M363.06,31.86c0.29-0.49,0.79-1.33,1.53-2.53s1.59-2.54,2.58-4c0.99-1.46,2.06-2.93,3.22-4.4
		c1.16-1.48,2.3-2.73,3.42-3.76l1.93,1.16c-1.23,2.03-2.49,4.19-3.78,6.47c-1.29,2.28-2.56,4.63-3.82,7.07h14.01l-0.86,2.23h-14.31
		c-1.29,2.58-2.5,5.14-3.63,7.69c-1.13,2.55-2.13,4.98-2.99,7.3c-0.86,2.32-1.53,4.49-2.02,6.51c-0.49,2.02-0.73,3.77-0.73,5.26
		c0,1.86,0.43,3.2,1.29,4.02s1.92,1.22,3.18,1.22c1.12,0,2.26-0.34,3.44-1.01c1.17-0.67,2.33-1.53,3.46-2.56
		c1.13-1.03,2.21-2.16,3.22-3.4c1.02-1.23,1.92-2.39,2.71-3.48c0.79-1.09,1.44-2.04,1.96-2.86s0.83-1.32,0.95-1.53l1.59,1.2
		c-1,1.66-2.13,3.42-3.39,5.28c-1.26,1.86-2.66,3.59-4.19,5.18c-1.53,1.59-3.2,2.91-5.01,3.95c-1.8,1.05-3.75,1.57-5.84,1.57
		c-1.29,0-2.41-0.23-3.37-0.69c-0.96-0.46-1.77-1.1-2.43-1.91s-1.15-1.78-1.48-2.9c-0.33-1.12-0.49-2.33-0.49-3.65
		c0-0.86,0.14-2.08,0.41-3.65c0.27-1.57,0.74-3.44,1.4-5.61c0.66-2.16,1.54-4.59,2.64-7.28c1.1-2.69,2.5-5.59,4.19-8.68h-7.13
		l0.86-2.23H363.06z"/>
						<path className="st0" d="M402.03,55.62c0.11,0.03,0.23,0.04,0.34,0.04c0.11,0,0.24,0,0.39,0c0.8,0,1.53-0.08,2.19-0.24
		c0.66-0.16,1.27-0.41,1.83-0.75s1.1-0.79,1.61-1.35s1.02-1.24,1.5-2.04l1.55,1.2c-1.38,1.95-2.79,3.31-4.25,4.08
		c-1.46,0.77-3.01,1.16-4.64,1.16c-0.6,0-1.13-0.06-1.59-0.17c-1.23,2.06-2.55,3.82-3.95,5.26c-1.4,1.45-2.84,2.63-4.3,3.54
		c-1.46,0.92-2.91,1.58-4.34,2c-1.43,0.42-2.76,0.62-4,0.62c-1.26,0-2.43-0.22-3.5-0.67s-2-1.08-2.77-1.91
		c-0.77-0.83-1.38-1.82-1.8-2.96c-0.43-1.14-0.64-2.43-0.64-3.87c0-1.43,0.23-2.89,0.69-4.38c0.46-1.49,1.08-2.96,1.87-4.43
		c0.79-1.46,1.71-2.87,2.77-4.23c1.06-1.36,2.21-2.63,3.44-3.8c1.23-1.17,2.51-2.23,3.82-3.18c1.32-0.94,2.63-1.72,3.95-2.32
		l1.38,1.8c-1.52,1.09-3.06,2.46-4.62,4.12c-1.56,1.66-2.98,3.48-4.25,5.46c-1.28,1.98-2.32,4.03-3.14,6.17s-1.22,4.2-1.22,6.21
		c0,1.8,0.4,3.2,1.2,4.19s2.02,1.48,3.65,1.48c1.26,0,2.51-0.26,3.74-0.77c1.23-0.52,2.43-1.22,3.61-2.11
		c1.17-0.89,2.31-1.94,3.39-3.16c1.09-1.22,2.12-2.51,3.09-3.89c-0.83-0.49-1.56-1.14-2.19-1.95c-0.63-0.82-1.16-1.75-1.59-2.79
		c-0.43-1.05-0.75-2.17-0.97-3.37s-0.32-2.43-0.32-3.69c0-1.26,0.16-2.45,0.47-3.57s0.75-2.1,1.31-2.94c0.56-0.84,1.21-1.51,1.96-2
		c0.74-0.49,1.56-0.73,2.45-0.73c0.8,0,1.52,0.21,2.15,0.62c0.63,0.42,1.16,0.99,1.59,1.72s0.76,1.6,0.99,2.6
		c0.23,1,0.34,2.08,0.34,3.22c0,0.86-0.07,1.8-0.21,2.84c-0.14,1.03-0.35,2.07-0.62,3.11c-0.27,1.05-0.6,2.08-0.99,3.09
		C403,53.91,402.55,54.82,402.03,55.62z M396.19,44.93c0,0.83,0.07,1.73,0.21,2.71c0.14,0.97,0.37,1.92,0.69,2.84
		c0.31,0.92,0.72,1.77,1.2,2.56c0.49,0.79,1.09,1.41,1.8,1.87c0.52-1,0.95-2.03,1.31-3.07c0.36-1.05,0.66-2.06,0.9-3.03
		c0.24-0.97,0.42-1.88,0.52-2.73c0.1-0.84,0.15-1.58,0.15-2.21c0-0.86-0.07-1.65-0.21-2.36c-0.14-0.72-0.34-1.34-0.58-1.87
		c-0.24-0.53-0.54-0.94-0.9-1.25c-0.36-0.3-0.75-0.45-1.18-0.45c-0.57,0-1.1,0.19-1.59,0.58c-0.49,0.39-0.9,0.9-1.25,1.55
		s-0.61,1.39-0.79,2.23C396.28,43.13,396.19,44.01,396.19,44.93z"/>
					</svg>